<?xml version="1.0" encoding="utf-8"?>
<!-- Generator: Adobe Illustrator 24.3.0, SVG Export Plug-In . SVG Version: 6.00 Build 0)  -->
<svg version="1.1" id="Layer_1" xmlns="http://www.w3.org/2000/svg" xmlns:xlink="http://www.w3.org/1999/xlink" x="0px" y="0px"
	 viewBox="0 0 512 512" style="enable-background:new 0 0 512 512;" xml:space="preserve">
<style type="text/css">
	.st0{fill:#2E83F1;}
	.st1{fill:#FFFFFF;}
	.st2{opacity:0.19;enable-background:new    ;}
	.st3{fill:#63AAF7;}
</style>
<path class="st0" d="M441.4,140.2V479c0,18.2-14.8,33-33,33H103.6c-18.2,0-33-14.8-33-33V33c0-18.2,14.8-33,33-33h197.6L441.4,140.2
	z"/>
<g>
	<path class="st1" d="M187,257.7h163.8v21.1H187L187,257.7z"/>
</g>
<circle class="st1" cx="149.8" cy="268.2" r="11.8"/>
<g>
	<path class="st1" d="M187,317.7h163.8v21.1H187L187,317.7z"/>
</g>
<circle class="st1" cx="149.8" cy="328.2" r="11.8"/>
<g>
	<path class="st1" d="M187,377.7h163.8v21.1H187L187,377.7z"/>
</g>
<circle class="st1" cx="149.8" cy="388.2" r="11.8"/>
<path class="st2" d="M320.3,135.4l121.1,98.1v-92.1l-68.7-39.9L320.3,135.4z"/>
<path class="st3" d="M441.4,140.2H334.2c-18.2,0-33-14.8-33-33V0L441.4,140.2z"/>
</svg>
