<?xml version="1.0" encoding="utf-8"?>
<!-- Generator: Adobe Illustrator 24.3.0, SVG Export Plug-In . SVG Version: 6.00 Build 0)  -->
<svg version="1.1" id="Camada_1" xmlns="http://www.w3.org/2000/svg" xmlns:xlink="http://www.w3.org/1999/xlink" x="0px" y="0px"
	 viewBox="0 0 1920 828" style="enable-background:new 0 0 1920 828;" xml:space="preserve">
<style type="text/css">
	.st0{fill:#ED305F;}
	.st1{fill-rule:evenodd;clip-rule:evenodd;fill:#764898;}
</style>
<g>
	<path class="st0" d="M970.8,596.9c-6.8,0-18.9-3.2-11.6-11.7c8-9.3,22.8-12.3,34.4-13.2c148-11.4,325.3-17.2,498.1-17.2
		c127.2,0,252.1,3.1,361.2,9.6c10.7,0.6,11.7,8.7,3.9,14.5c-9.2,6.9-21.3,9.9-32.7,9.9c-1.3,0-2.5,0-3.8-0.1
		c-105.5-6.3-226.2-9.3-349.5-9.3c-172.9,0-350.7,6-498.5,17.3C971.8,596.8,971.4,596.9,970.8,596.9"/>
	<path class="st0" d="M381.6,703.7c-6,0-11.4-1.4-12.5-5.8c-2.6-9.6,17.4-15.4,23.1-17.2c136.2-43.9,278.6-73.4,420.7-89.3
		c1.4-0.2,4.5-0.5,8-0.5c7.2,0,15.9,1.4,13.4,8.4c-3.6,9.8-20.9,14.7-29.9,15.7c-137.7,15.4-274.9,44-406.7,86.4
		C394.8,702.2,387.9,703.7,381.6,703.7"/>
	<path class="st1" d="M1251.2,320.3c-12.7,8.4-17.7,17.3-13.5,25.6c3.9,6.6,12,10.5,21.4,10.5c3.7,0,7.2-0.6,10.8-1.9
		c9.5-3.6,15.6-10.7,15.5-18c0.5-6.6-2.2-11-4.5-13.5c-3.8-4.1-9.7-6.4-16.4-6.4C1259.5,316.7,1254.7,318.1,1251.2,320.3"/>
	<path class="st1" d="M1919.7,437.9c-1.7-5.2-8.6-8.1-18.9-8.1c-3.6,0-7.5,0.4-11.7,1.1c-39.4,7.3-51.3,9.6-91.1,18.9
		c-12.8,3.1-22.6,5.2-31.3,7.2c-17.8,4.1-30.5,6.9-54.5,13.7c-4.8,1.4-51.5,12-53.8,12.5c-1.8,0.3-8.1-1.7-0.3-5.5
		c11-5.3,13.9-5.8,44.7-21.6c34.2-16.7,71.3-41.4,99.3-66c21.4-18.8,17.5-43-2.6-48c-56.6-14.1-113,34.6-135.3,57.3
		c-8.7,9-25.7,30.6-35.4,54.6c-13.3,5-44.3,16-69.3,18.7c-6.6,0.7-15.2-1.1-18.7-6.9c-7-11.8,2.4-47.3,62.3-96.1
		c7.9-6.5,40.5-32.2,73.7-58.2c91.1-6.8,170.3-11.3,209.9-10.3c12.7,0.3,18.8-9.8,21.5-16c4-9.2-4.5-13.8-11.5-13.7
		c-43.1,1.3-110.6,5.8-184,11.9c21-16.5,38-29.7,42.9-33.3c5.6-6,6.7-13.2,2.9-19.3c-3.1-5-8.8-8-15.1-7.9
		c-5.5,0.1-11.4,2.4-16.9,6.7c-8,6.3-35.1,29.5-71.7,58.8c-56.5,4.9-113.7,10.1-164,14.9c37.1-30.6,71-55,81.2-62.4
		c14.3-10.3,14-23.4,10.1-27.8c-2.9-3.2-7-4.9-12-4.9c-5.5,0-13.1,0.8-21.2,6c-13.7,8.8-58,48.4-111.7,94.2
		c-54.6,5.3-93.8,9.5-102.4,10.5c-5.8,0.7-6.5,9.2-4.1,14.9c2,4.8,7,8.4,10.1,8c20.3-2.1,42-4.4,64.6-6.6
		c-78.9,66-167.9,135.1-208.8,140.1c-2.4-0.8-4-1.9-4.1-3.3c1.4-14.1,39.1-75.6,45.6-84.9l0.2-0.3l0.1-0.4
		c1.8-6.3,0.8-12.3-2.9-16.9c-3.8-4.8-9.9-7.5-16.9-7.5c-5,0-10,1.5-14.5,4.1c-26.4,12.5-49.9,25.4-70.7,36.8
		c-28.8,15.7-51.7,28.2-70.8,33.7l-0.9-0.6l0.5-0.4c51.7-30.9,103.5-67.9,142.3-101.6l1.8-1.7c36.3-34.9,54.5-52.3,86.3-94.1
		c18-23.6,24.5-39,22.8-53.2c-0.9-7-3.3-12.4-7.4-16.2c-4-3.7-9.2-5.5-15.7-5.5c-16.2,0.1-35.6,11.7-47.2,21.7
		c-6.5,5.5-12.8,10.9-19.1,16.3c-26.7,22.7-51.9,44-75.6,68.1c-30.3,30.3-58.9,59-83.5,90c-9.2,9.5-16.1,19.2-22.9,28.6
		c-6.1,8.5-11.7,16.5-18.8,23.9c-1.9-0.4-3.8-0.5-5.5-0.5c-8.4,0-15.1,4.1-18.8,11.1c-2.3,4.4-2.9,9.4-2,13.3
		c-1.4,1.6-2.7,3.2-3.8,4.6c-18.4,16.8-39.2,34.9-53.4,40.4c-1.5,0.6-3,0.8-4.6,0.8c-3.2,0-6.5-1.3-8.6-3.4
		c-2.2-2.4-3.3-5.7-3.1-9.8c0.5-10.1,6.2-26.6,20.4-40.2c9.1-8.7,15.9-16.4,20.8-22c1.8-2.1,3.3-3.9,4.8-5.3
		c16.9-18.4,23.9-26.1,27.3-34.7c2.4-6.3,1.6-13-2.5-18.4c-3.4-4.6-8.7-7.4-13.7-7.4c-4.1,0-7.6,1.8-10.4,5.1
		c-3.9,4.6-7.5,9.7-11.5,15.1c-10.2,14.2-21.9,30.3-43.9,48.6c-16.1,13.4-82.1,55.5-103.8,55.6c-1.3,0-2.2-0.1-2.9-0.4
		c7.6-25.1,30.8-52.9,59.5-71.3l0.4-0.3c35.9-23.1,59.6-38.3,119.9-56.5c5.6-1.8,6.4-6.1,5.2-9.5c-2.1-6.2-10.7-12.4-21.4-12.4
		c-2.3,0-4.5,0.3-6.7,0.9c-64.1,16.9-102.6,39.3-143.4,62.9l-6.4,3.7c-14.2,7.2-33.3,18.4-51.8,29.2c-9.2,5.4-18.1,10.7-26.1,15.2
		l50.4-60.3l2.7-4.7l0.1-0.4c0.9-5.1,0.3-9.5-2-13.1c-2.3-3.7-6.2-6.5-11.6-8.3c-1.6-0.6-2.3-1-2.6-1.4c2.3-5.6,1.6-12.3-2.2-17.7
		c-3.4-5-8.7-7.9-14.1-7.9c-2.7,0-5.3,0.7-7.8,2.2c-34,20.2-154.1,91-157.4,93.3c20.3-24.8,32.9-45.7,52.3-72.4
		c10.9-14.9-11-25.2-35-15c0,0-60,31.4-80.7,40c-148.5,61.6-335.9,128.8-443.9,150c-19.8,3.9-47.2-2.6-31.9-29.2
		c47.7-82.6,173.7-164.4,200.4-182.3c105.3-71.3,261.1-149.8,385.2-190c73.1-23.7,203.3-48.7,136,21.6c-28.4,29.7-53.4,39.9-93,65.7
		c-28.5,18.6-27.2,55.1,16.7,36c34.3-14.8,88.3-62.1,109.5-89.9c86.9-113.7-41.7-110.6-195.9-58.2
		c-119.2,40.4-288.9,123.4-389.9,191.4C139.3,333.3,57.4,402.4,12.9,478.5C5.6,491.1-1.2,502.8,0.2,520
		c2.6,30.4,32.6,43.5,77.9,35.2c128.9-23.4,307.3-99.6,462.2-163.4c17.8-7.3,18.2,5.2,16.3,8.7c-7.9,14.4-22.7,26.6-53,54.5
		c-53.6,23.6-103.5,50-154.4,73.8c-95.9,46.1-191,77.8-256.5,143.7c-10.6,10.6-74,78-28.7,101.9c20.2,10.8,59.4-1.7,77.6-8.4
		c93-43.3,177.9-96.9,257.7-166c46.3-40.1,124.8-113.4,124.8-113.4s59.5-35.8,95.2-54.8c44.6-23.8,82.8-48.4,125-74.9l4.2,2.3
		c-33.4,34.4-64,71.2-86.6,104.3c-3.6,8.1-3.1,16,1.3,21.9c4.1,5.7,11.2,9,19.3,9c8.6,0,17.7-3.6,26.5-9.9
		c6.3-4.2,12.7-8.6,19.3-13.1c20.5-13.9,43-29.2,64.9-41.9c-7.3,7.9-12,13.8-14.2,17.5c-4.9,6.5-12.7,19.2-9.1,31
		c1.7,5.5,5.6,10,11.5,13.5c6.6,4,14.5,6,23.6,5.8c22.2,0,51.2-11.6,90.8-36c-0.2,16.6,7,36.1,23.7,43.9c3.9,1.8,8.8,2.7,14.5,2.7
		c2.8,0,5.8-0.2,9.1-0.7c-4.8,6-10.2,12.4-16.4,19.6L797.1,680.4c-8.1,11-5.3,19.2-2.9,23.1c3.8,6.3,11.4,10,19.8,10
		c9.2,0,17.8-4.5,23.5-12.3c58.4-80.6,119.7-159.8,182.3-235.6c11,4.3,21.7,6.5,33,6.5c15.2-1.1,56.2-24.7,95.9-47.4
		c10.4-6,20.4-11.7,29.8-16.9l-1.4,2.9c-10.9,22-16.1,34.4-25.5,60l-4,14.1c-2,10.1-0.9,17.4,3.2,22.4c1.6,1.9,3.6,3.3,5.8,4.4
		c4.1,2.2,9.5,3.6,17,3.9c45.4,1.8,94.4-37.4,131.6-60.2c16.9-10.4,29.4-21.8,29.1-21.2c-3.4,8.6-13.3,59.5,34.4,61.8
		c53.7,2.5,122.6-46.1,141.1-56.1c0,0-22.2,48.4,14.1,64.3c19.3,8.5,71.3-4.8,97.3-14c0.1,0.8,0.1,1.7,0.2,2.6
		c1.6,14.5,16.3,24.3,48.8,14.8c45.4-13.2,77.1-20,102.3-26c15.5-3.7,28.7-6.9,41.5-10.3c19.7-4.5,33.9-7.6,48.5-10.9
		c13.1-2.8,26.3-5.7,44.3-9.8C1916.7,447.8,1921.3,443.2,1919.7,437.9 M1770,369.4c4.5-1,8.5-1.9,11.1-1.9h0.6
		c-0.1,0.4-0.3,1.1-0.7,2.1c-28.8,27.4-72.3,54.7-107.8,68.4C1683.4,412.8,1736.2,379.6,1770,369.4 M1097.2,376.6
		c21.8-31.1,51-60.3,79.2-88.4l3.9-3.9c28.2-29.1,53.8-54.3,87.1-82.4c3.8-3.8,10-7.6,14.1-7.7c0.6,0,1.1,0.1,1.7,0.2
		c0.6,0.3,0.8,0.5,0.8,0.5c0.8,1.6-3,7.6-4.7,10.2l-0.8,1.3c-25.3,39.2-67.9,80.2-99.2,107.8l-8.3,7.2c-23.1,20-39.8,34.5-71.4,60.2
		c-3.3,2.4-6.4,4.2-8.5,5C1091.7,385,1093.5,381.8,1097.2,376.6 M357.9,590.1c-11.7,7.8-217.6,166.7-263.3,160.3
		c-23.4-12.4,12.1-56.8,71.7-96.1c70.1-46.5,170.2-88.5,194.2-98.4c25.8-12.4,62.5-28.7,89.4-40.5
		C424.7,540.8,385.8,567,357.9,590.1 M1396.8,454c-8.3,2.2-25.1-0.9-23.8-11.6c2.2-29.6,42.5-73.1,86.5-112.4
		c52.3-4.9,107.4-9.8,160.4-14.1C1547.3,372.4,1455.1,438,1396.8,454"/>
</g>
</svg>
