<svg id="Camada_1" data-name="Camada 1" xmlns="http://www.w3.org/2000/svg" viewBox="0 0 160 64.71"><defs><style>.cls-1{fill:#e3ac00;}.cls-2{fill:#13427a;}.cls-2,.cls-3{fill-rule:evenodd;}.cls-3{fill:#124279;}</style></defs><path class="cls-1" d="M80.91,45.52c-.57,0-1.58-.27-1-1a4.26,4.26,0,0,1,2.86-1.09c12.34-1,27.1-1.44,41.51-1.44,10.6,0,21,.27,30.1.8.88.06,1,.73.31,1.22a4.59,4.59,0,0,1-2.72.82h-.32c-8.79-.53-18.85-.78-29.12-.78-14.41,0-29.22.5-41.54,1.45h-.11" transform="translate(0 0.1)"/><path class="cls-1" d="M31.81,54.43c-.5,0-.95-.12-1-.49-.22-.8,1.45-1.28,1.92-1.44a181,181,0,0,1,35.06-7.44c.11,0,.38,0,.66,0,.61,0,1.32.12,1.12.7C69.23,46.54,67.78,47,67,47a175.09,175.09,0,0,0-33.89,7.2,4.84,4.84,0,0,1-1.33.21" transform="translate(0 0.1)"/><path class="cls-2" d="M104.27,22.48c-1.07.7-1.47,1.45-1.13,2.14a2,2,0,0,0,1.78.87,2.5,2.5,0,0,0,.89-.16,1.71,1.71,0,0,0,1.28-1.5,1.44,1.44,0,0,0-.37-1.12,1.78,1.78,0,0,0-1.36-.53,2,2,0,0,0-1.09.3" transform="translate(0 0.1)"/><path class="cls-2" d="M160,32.28c-.14-.44-.72-.68-1.58-.68a5.92,5.92,0,0,0-1,.1c-3.28.6-4.28.8-7.59,1.57-1.07.26-1.89.44-2.61.6-1.48.34-2.54.58-4.55,1.14-.4.11-4.3,1-4.49,1s-.68-.14,0-.47c.91-.44,1.16-.48,3.73-1.79a40.41,40.41,0,0,0,8.28-5.5c1.78-1.58,1.45-3.59-.22-4-4.72-1.18-9.42,2.88-11.27,4.78a15.54,15.54,0,0,0-3,4.55A26.61,26.61,0,0,1,130,35.17a1.62,1.62,0,0,1-1.55-.58c-.58-1,.2-3.94,5.18-8,.66-.54,3.38-2.68,6.14-4.85,7.6-.57,14.19-.94,17.5-.86A2,2,0,0,0,159,19.54c.33-.76-.38-1.15-1-1.14-3.59.11-9.22.5-15.34,1,1.75-1.37,3.17-2.47,3.58-2.77a1.29,1.29,0,0,0,.24-1.61,1.47,1.47,0,0,0-1.27-.67,2.3,2.3,0,0,0-1.4.56c-.67.51-2.93,2.45-6,4.9-4.71.4-9.48.84-13.66,1.24,3.08-2.55,5.91-4.58,6.76-5.19,1.19-.86,1.16-2,.84-2.32a1.28,1.28,0,0,0-1-.41,3.13,3.13,0,0,0-1.76.5c-1.14.73-4.84,4-9.31,7.85-4.55.45-7.81.79-8.53.87-.49.06-.55.78-.35,1.25s.59.7.85.66l5.39-.55c-6.57,5.51-14,11.26-17.4,11.68-.2-.07-.33-.16-.34-.28.12-1.17,3.25-6.3,3.8-7.08l0,0,0,0a1.53,1.53,0,0,0-.25-1.41,1.76,1.76,0,0,0-1.41-.63,2.61,2.61,0,0,0-1.22.34c-2.2,1-4.16,2.12-5.89,3.06a33.67,33.67,0,0,1-5.9,2.82l-.08,0,0,0a87.28,87.28,0,0,0,11.84-8.47l.15-.14a57.6,57.6,0,0,0,7.2-7.85c1.49-2,2-3.25,1.9-4.43A2.16,2.16,0,0,0,109,9.82a1.84,1.84,0,0,0-1.31-.46,7,7,0,0,0-3.93,1.81l-1.59,1.36c-2.23,1.89-4.33,3.67-6.31,5.67a90.3,90.3,0,0,0-6.95,7.5A18.06,18.06,0,0,0,87,28.09a19.21,19.21,0,0,1-1.57,2,2.53,2.53,0,0,0-.46,0A1.71,1.71,0,0,0,83.4,31a1.56,1.56,0,0,0-.16,1.1,4.37,4.37,0,0,0-.31.39,19.66,19.66,0,0,1-4.45,3.37,1,1,0,0,1-.38.07,1,1,0,0,1-.71-.29,1.06,1.06,0,0,1-.26-.82,5.36,5.36,0,0,1,1.69-3.35c.76-.72,1.32-1.36,1.74-1.83.15-.17.27-.32.4-.44a11.15,11.15,0,0,0,2.27-2.89A1.56,1.56,0,0,0,83,24.75a1.45,1.45,0,0,0-1.14-.62,1.1,1.1,0,0,0-.86.43c-.33.39-.63.81-1,1.26a20,20,0,0,1-3.66,4c-1.34,1.12-6.84,4.62-8.65,4.63a.74.74,0,0,1-.24,0,12,12,0,0,1,5-5.94l0,0a32.44,32.44,0,0,1,10-4.7.57.57,0,0,0,.43-.79,1.89,1.89,0,0,0-1.78-1,3.43,3.43,0,0,0-.56.07,44.12,44.12,0,0,0-11.95,5.25l-.53.3c-1.18.6-2.78,1.53-4.32,2.44-.76.45-1.5.89-2.18,1.27l4.2-5,.22-.39v0a1.42,1.42,0,0,0-.17-1.09,1.73,1.73,0,0,0-1-.69A1,1,0,0,1,64.7,24a1.56,1.56,0,0,0-.18-1.47,1.45,1.45,0,0,0-1.18-.66,1.3,1.3,0,0,0-.65.18c-2.85,1.7-12.85,7.6-13.13,7.79,1.68-2.06,2.73-3.81,4.35-6,.91-1.25-.92-2.1-2.92-1.26,0,0-5,2.62-6.73,3.34-12.36,5.13-28,10.72-37,12.49-1.65.32-3.94-.21-2.66-2.43,4-6.89,14.48-13.7,16.7-15.19A141.66,141.66,0,0,1,53.42,4.89c6.09-2,16.93-4.06,11.33,1.8C62.39,9.15,60.3,10,57,12.16c-2.38,1.55-2.27,4.59,1.39,3,2.85-1.24,7.36-5.18,9.12-7.49,7.27-9.49-3.45-9.21-16.3-4.85a159.49,159.49,0,0,0-32.5,16c-7.1,4.8-13.93,10.56-17.63,16.9A5.49,5.49,0,0,0,0,39.12c.22,2.54,2.71,3.63,6.49,2.93C17.25,40.1,32.12,33.75,45,28.44c1.48-.61,1.52.44,1.36.73-.66,1.2-1.89,2.22-4.42,4.54-4.46,2-8.63,4.16-12.87,6.15-8,3.84-15.92,6.48-21.38,12-.89.88-6.17,6.49-2.39,8.48,1.67.9,5-.13,6.46-.69A91,91,0,0,0,33.26,45.8c3.86-3.34,10.4-9.45,10.4-9.45s5-3,7.93-4.58c3.71-2,6.9-4,10.41-6.23l.35.19a68.6,68.6,0,0,0-7.22,8.7,1.8,1.8,0,0,0,.11,1.83,1.92,1.92,0,0,0,1.61.75,3.83,3.83,0,0,0,2.2-.82l1.62-1.09c1.7-1.16,3.58-2.43,5.4-3.49a10.83,10.83,0,0,0-1.19,1.46,3.13,3.13,0,0,0-.75,2.59,2,2,0,0,0,1,1.12,3.77,3.77,0,0,0,2,.49c1.85,0,4.26-1,7.56-3a4,4,0,0,0,2,3.66,2.87,2.87,0,0,0,1.21.23,5,5,0,0,0,.75-.06L77.2,39.73,66.42,52.48a1.65,1.65,0,0,0-.24,1.93,1.94,1.94,0,0,0,1.66.84,2.43,2.43,0,0,0,2-1C74.66,47.5,79.77,40.9,85,34.59a7.56,7.56,0,0,0,2.75.54c1.26-.1,4.68-2.06,8-4l2.48-1.41-.11.24A44,44,0,0,0,96,35l-.33,1.18a2.14,2.14,0,0,0,.27,1.87,1.28,1.28,0,0,0,.49.36,3.15,3.15,0,0,0,1.41.32c3.79.15,7.87-3.11,11-5A23.3,23.3,0,0,0,111.21,32c-.29.71-1.1,5,2.86,5.15,4.48.21,10.22-3.84,11.76-4.67,0,0-1.86,4,1.17,5.36,1.61.71,5.94-.39,8.12-1.16a1.48,1.48,0,0,0,0,.21c.13,1.21,1.36,2,4.06,1.24,3.79-1.1,6.42-1.65,8.53-2.16,1.28-.31,2.39-.58,3.45-.86,1.65-.38,2.83-.64,4-.9l3.69-.82c.83-.24,1.21-.63,1.07-1.07M147.5,26.56a5.5,5.5,0,0,1,.92-.15h.05a.58.58,0,0,1-.06.17,29.9,29.9,0,0,1-9,5.7c.86-2.09,5.26-4.86,8.07-5.72m-56.07.61A59.69,59.69,0,0,1,98,19.81l.33-.32a92,92,0,0,1,7.25-6.86,2.11,2.11,0,0,1,1.17-.64h.14l.07.05c.07.13-.25.63-.4.85l-.07.11a48.32,48.32,0,0,1-8.26,9l-.69.6c-1.92,1.67-3.31,2.87-5.95,5a3.68,3.68,0,0,1-.72.42,5.87,5.87,0,0,1,.53-.86M29.83,45c-1,.65-18.13,13.9-21.94,13.37-1.95-1,1-4.74,6-8A108.2,108.2,0,0,1,30,42.1c2.15-1,5.21-2.39,7.46-3.38C35.39,40.85,32.15,43,29.83,45M116.4,33.62c-.69.18-2.09-.08-2-1,.18-2.46,3.54-6.1,7.2-9.37,4.35-.41,8.95-.81,13.37-1.17-6.05,4.71-13.73,10.17-18.59,11.51" transform="translate(0 0.1)"/><path class="cls-3" d="M154.29,62.52V61.45h.87v1.07Zm-2.34,0V53.18h.73v9.34Zm-1.12-2.06a2.68,2.68,0,0,1-.46,1.65,1.55,1.55,0,0,1-1.29.57,1.39,1.39,0,0,1-1.31-.86,6.1,6.1,0,0,1-.43-2.64,6.18,6.18,0,0,1,.43-2.65,1.37,1.37,0,0,1,1.31-.86,1.42,1.42,0,0,1,1.32.85,5.54,5.54,0,0,1,.45,2.51v.21h-2.79v.1a6,6,0,0,0,.26,2.06.89.89,0,0,0,.85.64.77.77,0,0,0,.71-.4,2.41,2.41,0,0,0,.24-1.19Zm-2.77-1.84h2.07a4.82,4.82,0,0,0-.29-1.72c-.17-.4-.4-.6-.71-.6a.82.82,0,0,0-.76.57A4.83,4.83,0,0,0,148.06,58.62Zm-5,6V55.79h.71v.62a2,2,0,0,1,.54-.55,1.11,1.11,0,0,1,.61-.18,1.21,1.21,0,0,1,1.13.88,7.11,7.11,0,0,1,.38,2.65,6.72,6.72,0,0,1-.37,2.55,1.21,1.21,0,0,1-1.14.83,1.16,1.16,0,0,1-.6-.17,1.91,1.91,0,0,1-.54-.5v2.69Zm.71-3.55a2.36,2.36,0,0,0,.49.66.79.79,0,0,0,.52.23c.31,0,.55-.21.68-.63a7.37,7.37,0,0,0,.21-2.1,8,8,0,0,0-.21-2.16c-.15-.45-.37-.67-.67-.67a.74.74,0,0,0-.54.24,2.43,2.43,0,0,0-.48.71v3.72Zm-2.87,1.46-.1-.63a1.86,1.86,0,0,1-.63.53,1.66,1.66,0,0,1-.75.18,1.19,1.19,0,0,1-1-.45,1.94,1.94,0,0,1-.36-1.23,2.26,2.26,0,0,1,.65-1.59A6.21,6.21,0,0,1,140.78,58v-.58a1.4,1.4,0,0,0-.21-.82.71.71,0,0,0-.6-.3.84.84,0,0,0-.69.39,1.93,1.93,0,0,0-.34,1h-.67a2.58,2.58,0,0,1,.54-1.52,1.5,1.5,0,0,1,1.19-.53,1.22,1.22,0,0,1,1.11.57,3.1,3.1,0,0,1,.37,1.68v3.3c0,.29,0,.53,0,.73s0,.38.07.55h-.7Zm-.1-1.38V58.73a4.69,4.69,0,0,0-1.49,1,1.72,1.72,0,0,0-.49,1.19,1.13,1.13,0,0,0,.22.74.65.65,0,0,0,.56.27,1,1,0,0,0,.6-.2A2.35,2.35,0,0,0,140.77,61.14Zm-7,3.47V55.79h.71v.62a2,2,0,0,1,.54-.55,1.08,1.08,0,0,1,.6-.18,1.21,1.21,0,0,1,1.13.88,7.11,7.11,0,0,1,.38,2.65,6.72,6.72,0,0,1-.37,2.55,1.21,1.21,0,0,1-1.14.83,1.19,1.19,0,0,1-.6-.17,1.91,1.91,0,0,1-.54-.5v2.69Zm.71-3.55a2.56,2.56,0,0,0,.48.66.83.83,0,0,0,.52.23q.48,0,.69-.63a7.37,7.37,0,0,0,.21-2.1,7.87,7.87,0,0,0-.22-2.16c-.14-.45-.36-.67-.66-.67a.74.74,0,0,0-.54.24,2.44,2.44,0,0,0-.49.71v3.72Zm-6.2-5.4a1.36,1.36,0,0,1,1.29.87,6.18,6.18,0,0,1,.43,2.65,6.14,6.14,0,0,1-.43,2.63,1.37,1.37,0,0,1-1.3.87,1.39,1.39,0,0,1-1.31-.86,6.26,6.26,0,0,1-.43-2.64,6.34,6.34,0,0,1,.43-2.65A1.4,1.4,0,0,1,128.31,55.66Zm0,.66c-.36,0-.61.21-.76.64a7.56,7.56,0,0,0-.23,2.22,7.41,7.41,0,0,0,.23,2.2c.15.44.4.65.76.65s.58-.23.74-.68a7.5,7.5,0,0,0,.23-2.17,7.53,7.53,0,0,0-.23-2.18C128.89,56.54,128.65,56.32,128.31,56.32Zm-3.75,4.77V57.31a2.37,2.37,0,0,0-.51-.65.78.78,0,0,0-.5-.23c-.33,0-.56.2-.71.61a7.08,7.08,0,0,0-.21,2.07,8.24,8.24,0,0,0,.21,2.21c.15.45.38.68.69.68a.8.8,0,0,0,.53-.24A2.08,2.08,0,0,0,124.56,61.09Zm.72,1.43h-.53l-.13-.58a2.16,2.16,0,0,1-.55.54,1.1,1.1,0,0,1-.59.2,1.29,1.29,0,0,1-1.2-.89,6.82,6.82,0,0,1-.39-2.68,5.89,5.89,0,0,1,.4-2.52,1.26,1.26,0,0,1,1.17-.85,1,1,0,0,1,.58.2,2.12,2.12,0,0,1,.52.55V53.18h.72v9.34Zm-12.39,0V55.81h.71v.69a2.72,2.72,0,0,1,.62-.58,1.17,1.17,0,0,1,.62-.19.93.93,0,0,1,.65.24,1.1,1.1,0,0,1,.33.65,2.58,2.58,0,0,1,.66-.66,1.32,1.32,0,0,1,.69-.23.86.86,0,0,1,.81.47,3.26,3.26,0,0,1,.26,1.48v4.83h-.73V57.6a2.45,2.45,0,0,0-.12-.93.4.4,0,0,0-.4-.26.81.81,0,0,0-.51.22,3.17,3.17,0,0,0-.57.65v5.23h-.7V57.6a2.22,2.22,0,0,0-.13-.93.4.4,0,0,0-.4-.26.81.81,0,0,0-.51.22,3.17,3.17,0,0,0-.57.65v5.23h-.71Zm-2.53-9.78h.76L109.76,55h-.46Zm1.39,7.72a2.61,2.61,0,0,1-.46,1.65,1.55,1.55,0,0,1-1.29.57,1.39,1.39,0,0,1-1.31-.86,6.26,6.26,0,0,1-.43-2.64,6.34,6.34,0,0,1,.43-2.65,1.38,1.38,0,0,1,1.31-.86,1.4,1.4,0,0,1,1.32.85,5.53,5.53,0,0,1,.46,2.51v.21H109v.1a5.75,5.75,0,0,0,.27,2.06.87.87,0,0,0,.84.64.77.77,0,0,0,.71-.4,2.4,2.4,0,0,0,.25-1.19ZM109,58.62h2.07a4.82,4.82,0,0,0-.29-1.72c-.17-.4-.4-.6-.72-.6a.83.83,0,0,0-.76.57A4.86,4.86,0,0,0,109,58.62Zm-2.75,3.9V53.18H107v9.34Zm-2.15,0-.1-.63a1.86,1.86,0,0,1-.63.53,1.65,1.65,0,0,1-.74.18,1.19,1.19,0,0,1-1-.45,2,2,0,0,1-.36-1.23,2.26,2.26,0,0,1,.65-1.59A6.21,6.21,0,0,1,104,58v-.58a1.4,1.4,0,0,0-.21-.82.71.71,0,0,0-.6-.3.84.84,0,0,0-.69.39,1.93,1.93,0,0,0-.34,1h-.66a2.65,2.65,0,0,1,.53-1.52,1.53,1.53,0,0,1,1.2-.53,1.23,1.23,0,0,1,1.11.57,3.1,3.1,0,0,1,.37,1.68v3.3c0,.29,0,.53,0,.73a4.34,4.34,0,0,0,.07.55h-.71Zm-.1-1.38V58.73a4.69,4.69,0,0,0-1.49,1,1.77,1.77,0,0,0-.49,1.19,1.13,1.13,0,0,0,.22.74.67.67,0,0,0,.56.27,1,1,0,0,0,.6-.2A2.2,2.2,0,0,0,104,61.14Zm-7.8-5.48a1.36,1.36,0,0,1,1.29.87,6.18,6.18,0,0,1,.43,2.65,6.14,6.14,0,0,1-.43,2.63,1.37,1.37,0,0,1-1.3.87,1.39,1.39,0,0,1-1.31-.86,6.26,6.26,0,0,1-.43-2.64,6.34,6.34,0,0,1,.43-2.65A1.41,1.41,0,0,1,96.19,55.66Zm0,.66c-.36,0-.61.21-.76.64a7.56,7.56,0,0,0-.23,2.22,7.41,7.41,0,0,0,.23,2.2c.15.44.4.65.76.65s.58-.23.74-.68a7.5,7.5,0,0,0,.23-2.17A7.53,7.53,0,0,0,96.93,57C96.77,56.54,96.53,56.32,96.19,56.32Zm-3.45,4.75a1.31,1.31,0,0,0,.14.7.51.51,0,0,0,.47.2,1.36,1.36,0,0,0,.29,0,1.25,1.25,0,0,0,.29-.1v.64l-.37.09a2.38,2.38,0,0,1-.34,0,1.14,1.14,0,0,1-.93-.35A2.09,2.09,0,0,1,92,61V56.42h-.88v-.61H92V53.66h.72v2.15h1.19v.6H92.74v4.66Zm-3.19,1.45V55.81h.73v6.71Zm-.06-8.29v-.86h.85v.86Zm-1.58,1.58v6.71H87.2v-.69a2.39,2.39,0,0,1-.63.58,1.33,1.33,0,0,1-.67.2.9.9,0,0,1-.84-.47,3.25,3.25,0,0,1-.26-1.49V55.81h.7v4.93a2.38,2.38,0,0,0,.13.92.44.44,0,0,0,.43.27.91.91,0,0,0,.56-.22,3.19,3.19,0,0,0,.58-.65V55.81Zm-9.78,6.71V53.18h1.33l1,5.93c0,.1,0,.32.1.66s.07.73.12,1.18c0-.4.08-.74.12-1.07s.07-.59.1-.81l1-5.9h1.35v9.34h-.79V53.6L81,62.52h-.6L78.87,53.6v8.92Z" transform="translate(0 0.1)"/></svg>