<?xml version="1.0" encoding="utf-8"?>
<!-- Generator: Adobe Illustrator 24.3.0, SVG Export Plug-In . SVG Version: 6.00 Build 0)  -->
<svg version="1.1" id="Camada_1" xmlns="http://www.w3.org/2000/svg" xmlns:xlink="http://www.w3.org/1999/xlink" x="0px" y="0px"
	 viewBox="0 0 248 100" style="enable-background:new 0 0 248 100;" xml:space="preserve">
<style type="text/css">
	.st0{fill:#E3AC00;}
	.st1{fill-rule:evenodd;clip-rule:evenodd;fill:#13427A;}
	.st2{fill-rule:evenodd;clip-rule:evenodd;fill:#124279;}
</style>
<g>
	<g>
		<g>
			<path class="st0" d="M125.4,70.5c-0.88,0-2.43-0.42-1.49-1.5c1.03-1.2,2.94-1.58,4.42-1.69c19.06-1.47,41.88-2.22,64.14-2.22
				c16.39,0,32.47,0.41,46.52,1.24c1.37,0.08,1.51,1.12,0.49,1.88c-1.18,0.88-2.74,1.27-4.21,1.27c-0.16,0-0.33,0-0.49-0.01
				c-13.59-0.81-29.13-1.2-45.01-1.2c-22.26,0-45.16,0.77-64.2,2.24C125.52,70.49,125.46,70.5,125.4,70.5"/>
			<path class="st0" d="M49.52,84.26c-0.76,0-1.47-0.18-1.62-0.75c-0.33-1.24,2.24-1.98,2.97-2.22c17.54-5.64,35.88-9.46,54.18-11.5
				c0.18-0.02,0.59-0.06,1.03-0.06c0.93,0,2.04,0.18,1.72,1.07c-0.45,1.27-2.69,1.9-3.84,2.02c-17.72,1.98-35.41,5.66-52.38,11.12
				C51.21,84.06,50.33,84.26,49.52,84.26"/>
			<path class="st1" d="M161.5,34.89c-1.64,1.08-2.27,2.24-1.74,3.3c0.5,0.84,1.55,1.36,2.75,1.35c0.47,0,0.93-0.08,1.38-0.25
				c1.22-0.45,2-1.37,1.98-2.32c0.06-0.85-0.28-1.42-0.57-1.73c-0.48-0.52-1.25-0.83-2.11-0.82
				C162.57,34.43,161.95,34.6,161.5,34.89"/>
			<path class="st1" d="M247.59,50.03c-0.22-0.67-1.11-1.05-2.44-1.04c-0.46,0-0.97,0.05-1.51,0.14c-5.07,0.94-6.6,1.24-11.73,2.43
				c-1.65,0.4-2.91,0.68-4.03,0.93c-2.28,0.52-3.92,0.89-7.03,1.76c-0.62,0.18-6.64,1.55-6.93,1.61c-0.23,0.04-1.06-0.22-0.04-0.72
				c1.41-0.68,1.79-0.75,5.76-2.78c4.4-2.15,9.19-5.33,12.8-8.5c2.76-2.43,2.25-5.54-0.34-6.18c-7.29-1.82-14.55,4.45-17.42,7.39
				c-1.12,1.16-3.31,3.95-4.56,7.03c-1.71,0.65-5.71,2.06-8.92,2.4c-0.85,0.09-1.96-0.14-2.4-0.89c-0.9-1.52,0.3-6.1,8.01-12.37
				c1.02-0.84,5.22-4.14,9.49-7.5c11.74-0.88,21.92-1.45,27.03-1.33c1.64,0.04,2.43-1.27,2.77-2.06c0.51-1.18-0.58-1.78-1.48-1.76
				c-5.55,0.16-14.25,0.76-23.71,1.53c2.71-2.12,4.9-3.82,5.53-4.29c0.73-0.77,0.86-1.7,0.37-2.49c-0.4-0.65-1.13-1.03-1.95-1.03
				c-0.72,0.01-1.47,0.3-2.17,0.86c-1.03,0.8-4.53,3.79-9.22,7.57c-7.28,0.63-14.65,1.31-21.12,1.93c4.77-3.94,9.14-7.09,10.45-8.03
				c1.84-1.33,1.8-3.02,1.3-3.58c-0.37-0.42-0.89-0.63-1.55-0.63c-0.71,0-1.69,0.1-2.72,0.77c-1.76,1.13-7.47,6.23-14.38,12.13
				c-7.04,0.69-12.08,1.22-13.19,1.35c-0.76,0.09-0.84,1.19-0.53,1.92c0.26,0.61,0.9,1.08,1.31,1.03c2.62-0.28,5.41-0.56,8.32-0.85
				c-10.15,8.51-21.61,17.39-26.89,18.04c-0.31-0.11-0.51-0.25-0.52-0.43c0.18-1.81,5.03-9.74,5.88-10.94l0.03-0.04l0.02-0.05
				c0.23-0.81,0.1-1.58-0.38-2.18c-0.48-0.62-1.28-0.97-2.18-0.97c-0.64,0-1.29,0.19-1.88,0.52c-3.41,1.62-6.43,3.27-9.11,4.73
				c-3.71,2.02-6.66,3.64-9.12,4.35l-0.12-0.07l0.07-0.05c6.65-3.98,13.32-8.75,18.31-13.09l0.23-0.22
				c4.68-4.49,7.02-6.74,11.12-12.13c2.31-3.04,3.16-5.02,2.94-6.84c-0.12-0.9-0.44-1.6-0.96-2.09c-0.51-0.47-1.19-0.71-2.02-0.71
				c-2.09,0.01-4.58,1.51-6.08,2.8c-0.83,0.71-1.65,1.4-2.46,2.1c-3.44,2.92-6.69,5.67-9.74,8.77c-3.9,3.91-7.59,7.6-10.75,11.59
				c-1.18,1.22-2.08,2.47-2.94,3.69c-0.78,1.09-1.51,2.12-2.42,3.09c-0.25-0.05-0.49-0.07-0.71-0.07c-1.07,0-1.95,0.52-2.43,1.43
				c-0.29,0.56-0.38,1.21-0.25,1.7c-0.18,0.21-0.35,0.42-0.48,0.6c-2.37,2.17-5.04,4.49-6.87,5.21c-0.19,0.08-0.39,0.11-0.59,0.11
				c-0.42,0-0.83-0.16-1.1-0.45c-0.28-0.31-0.42-0.74-0.4-1.26c0.06-1.3,0.79-3.43,2.62-5.18c1.17-1.12,2.04-2.11,2.68-2.83
				c0.23-0.26,0.43-0.49,0.62-0.69c2.17-2.36,3.09-3.37,3.51-4.46c0.31-0.81,0.2-1.67-0.32-2.37c-0.44-0.59-1.11-0.95-1.76-0.95
				c-0.52,0-0.98,0.23-1.34,0.66c-0.5,0.6-0.97,1.25-1.48,1.95c-1.32,1.82-2.83,3.9-5.65,6.25c-2.08,1.73-10.57,7.14-13.37,7.15
				c-0.16,0-0.29-0.02-0.37-0.05c0.98-3.22,3.97-6.81,7.67-9.18l0.06-0.04c4.62-2.98,7.68-4.94,15.45-7.27
				c0.73-0.22,0.83-0.78,0.67-1.22c-0.27-0.79-1.38-1.6-2.76-1.6c-0.29,0.01-0.58,0.04-0.86,0.11c-8.26,2.18-13.22,5.06-18.47,8.1
				l-0.82,0.47c-1.83,0.92-4.29,2.37-6.67,3.77c-1.18,0.69-2.33,1.37-3.37,1.97l6.49-7.76l0.34-0.61l0.01-0.05
				c0.12-0.66,0.04-1.22-0.26-1.68c-0.3-0.47-0.8-0.83-1.49-1.06c-0.21-0.09-0.3-0.14-0.34-0.17c0.3-0.73,0.2-1.59-0.28-2.28
				c-0.44-0.64-1.12-1.02-1.81-1.02c-0.35,0-0.69,0.1-1.01,0.29c-4.41,2.62-19.86,11.74-20.3,12.03c2.61-3.19,4.23-5.89,6.73-9.32
				c1.4-1.93-1.42-3.25-4.51-1.94c0,0-7.72,4.05-10.4,5.16C49.66,48.02,25.52,56.67,11.61,59.4c-2.55,0.5-6.08-0.33-4.1-3.76
				c6.15-10.65,22.38-21.17,25.81-23.47c13.55-9.19,33.63-19.29,49.6-24.47c9.42-3.05,26.17-6.27,17.51,2.78
				c-3.65,3.81-6.87,5.14-11.98,8.46c-3.68,2.4-3.5,7.1,2.15,4.64c4.41-1.92,11.37-8.01,14.1-11.58C115.93-2.66,99.37-2.24,79.5,4.5
				C64.16,9.7,42.29,20.38,29.28,29.15C18.3,36.57,7.76,45.47,2.03,55.27c-0.94,1.61-1.82,3.12-1.64,5.34
				c0.34,3.92,4.2,5.6,10.04,4.53c16.59-3.02,39.58-12.84,59.52-21.04c2.29-0.94,2.35,0.68,2.1,1.12c-1.02,1.86-2.92,3.44-6.82,7.02
				c-6.9,3.04-13.34,6.44-19.89,9.51c-12.35,5.93-24.6,10.02-33.04,18.51c-1.38,1.36-9.54,10.03-3.7,13.11
				c2.59,1.39,7.66-0.21,9.99-1.07c11.98-5.58,22.91-12.49,33.18-21.37c5.96-5.17,16.07-14.61,16.07-14.61s7.67-4.62,12.25-7.07
				c5.74-3.07,10.67-6.22,16.09-9.64l0.54,0.3c-4.3,4.43-8.24,9.17-11.15,13.44c-0.46,1.05-0.4,2.05,0.16,2.83
				c0.53,0.74,1.44,1.16,2.49,1.16c1.1,0,2.28-0.45,3.41-1.27c0.81-0.54,1.64-1.11,2.49-1.68c2.63-1.79,5.54-3.76,8.35-5.39
				c-0.94,1.02-1.54,1.77-1.83,2.26c-0.64,0.84-1.64,2.48-1.17,3.99c0.22,0.71,0.72,1.3,1.49,1.74c0.85,0.51,1.87,0.76,3.04,0.76
				c2.86,0,6.59-1.49,11.69-4.65c-0.02,2.13,0.9,4.65,3.05,5.65c0.5,0.23,1.13,0.36,1.87,0.35c0.37,0,0.75-0.03,1.17-0.09
				c-0.62,0.76-1.32,1.6-2.11,2.53l-16.66,19.71c-1.04,1.41-0.68,2.47-0.37,2.98c0.49,0.8,1.47,1.3,2.56,1.3
				c1.18,0,2.28-0.58,3.02-1.59c7.52-10.38,15.42-20.58,23.47-30.34c1.41,0.56,2.8,0.83,4.25,0.84c1.96-0.15,7.24-3.18,12.35-6.1
				c1.34-0.77,2.63-1.51,3.84-2.18l-0.17,0.37c-1.4,2.84-2.07,4.43-3.28,7.73l-0.51,1.82c-0.26,1.3-0.12,2.24,0.42,2.88
				c0.2,0.25,0.45,0.43,0.75,0.56c0.52,0.28,1.23,0.46,2.19,0.5c5.85,0.23,12.15-4.81,16.95-7.75c2.17-1.34,3.78-2.8,3.75-2.73
				c-0.44,1.1-1.7,7.67,4.42,7.96c6.92,0.32,15.79-5.94,18.17-7.22c0,0-2.87,6.22,1.82,8.29c2.48,1.09,9.18-0.61,12.54-1.8
				c0.01,0.11,0.01,0.22,0.02,0.33c0.2,1.87,2.1,3.13,6.28,1.92c5.85-1.7,9.92-2.56,13.17-3.35c1.99-0.47,3.7-0.89,5.34-1.33
				c2.55-0.58,4.37-0.99,6.24-1.39c1.68-0.37,3.39-0.74,5.71-1.27C247.22,51.31,247.81,50.71,247.59,50.03 M228.32,41.2
				c0.59-0.13,1.09-0.24,1.42-0.24h0.08c-0.02,0.06-0.04,0.15-0.1,0.27c-3.71,3.52-9.3,7.05-13.88,8.81
				C217.17,46.8,223.97,42.53,228.32,41.2 M141.67,42.14c2.82-4,6.57-7.76,10.2-11.38l0.5-0.49c3.63-3.76,6.93-7,11.21-10.61
				c0.48-0.48,1.28-0.99,1.81-0.99c0.08,0,0.15,0.01,0.21,0.03c0.08,0.04,0.11,0.07,0.11,0.07c0.11,0.2-0.39,0.98-0.61,1.32
				l-0.11,0.17c-3.25,5.05-8.74,10.34-12.77,13.88l-1.07,0.93c-2.97,2.58-5.12,4.44-9.2,7.75c-0.43,0.31-0.82,0.53-1.1,0.65
				C140.96,43.22,141.2,42.8,141.67,42.14 M46.47,69.62c-1.51,1-28.02,21.47-33.91,20.65c-3.02-1.6,1.56-7.32,9.22-12.38
				c9.03-5.99,21.91-11.39,25-12.68c3.32-1.6,8.05-3.7,11.52-5.22C55.06,63.28,50.05,66.66,46.47,69.62 M180.26,52.1
				c-1.07,0.28-3.23-0.12-3.07-1.5c0.28-3.8,5.47-9.42,11.13-14.47c6.73-0.64,13.83-1.26,20.66-1.82
				C199.64,41.59,187.76,50.04,180.26,52.1"/>
		</g>
	</g>
	<path class="st2" d="M238.81,96.76v-1.64h1.34v1.64H238.81z M235.2,96.76V82.33h1.12v14.43H235.2z M233.46,93.58
		c-0.01,1.11-0.25,1.96-0.71,2.55c-0.46,0.59-1.13,0.88-1.99,0.88c-0.92,0-1.6-0.44-2.03-1.32c-0.44-0.88-0.66-2.25-0.66-4.08
		c0-1.84,0.22-3.21,0.66-4.1c0.44-0.89,1.11-1.33,2.03-1.33c0.9,0,1.58,0.44,2.04,1.32c0.46,0.88,0.7,2.17,0.7,3.88v0.32h-4.32v0.16
		c0,1.45,0.14,2.51,0.41,3.17c0.27,0.67,0.7,1,1.3,1c0.48,0,0.85-0.21,1.1-0.63c0.25-0.42,0.38-1.03,0.38-1.83L233.46,93.58z
		 M229.18,90.74l3.2-0.01c-0.03-1.17-0.18-2.06-0.44-2.67c-0.27-0.61-0.63-0.92-1.11-0.92c-0.51,0-0.9,0.29-1.17,0.88
		C229.39,88.62,229.23,89.52,229.18,90.74z M221.41,100V86.36h1.1v0.97c0.26-0.38,0.54-0.67,0.83-0.85
		c0.29-0.19,0.61-0.28,0.95-0.28c0.76,0,1.35,0.45,1.74,1.36c0.39,0.91,0.58,2.27,0.58,4.09c0,1.78-0.19,3.09-0.57,3.94
		c-0.38,0.85-0.96,1.28-1.75,1.28c-0.33,0-0.65-0.08-0.93-0.25c-0.29-0.17-0.58-0.43-0.84-0.78V100H221.41z M222.51,94.51
		c0.23,0.44,0.48,0.78,0.75,1.02c0.27,0.24,0.53,0.36,0.8,0.36c0.49,0,0.85-0.33,1.06-0.98c0.21-0.65,0.32-1.73,0.32-3.25
		c0-1.52-0.11-2.64-0.33-3.33c-0.22-0.7-0.56-1.04-1.03-1.04c-0.29,0-0.57,0.12-0.83,0.37c-0.27,0.25-0.51,0.62-0.75,1.11V94.51z
		 M218.07,96.76l-0.15-0.96c-0.29,0.35-0.61,0.62-0.98,0.81c-0.37,0.19-0.75,0.28-1.15,0.28c-0.63,0-1.13-0.23-1.5-0.7
		c-0.37-0.46-0.56-1.1-0.56-1.89c0-0.93,0.33-1.75,1-2.46c0.66-0.71,1.73-1.39,3.2-2.03v-0.9c0-0.53-0.11-0.95-0.33-1.26
		c-0.23-0.31-0.53-0.46-0.92-0.46c-0.42,0-0.77,0.2-1.07,0.6c-0.29,0.4-0.47,0.92-0.53,1.57h-1.03c0.08-1,0.36-1.78,0.83-2.34
		c0.47-0.55,1.09-0.83,1.85-0.83c0.75,0,1.32,0.29,1.71,0.89c0.39,0.59,0.58,1.46,0.58,2.6v5.09c0,0.45,0.01,0.83,0.03,1.13
		c0.02,0.31,0.06,0.59,0.1,0.85H218.07z M217.92,94.63v-3.72c-1.04,0.48-1.81,1-2.31,1.55c-0.5,0.55-0.75,1.17-0.75,1.84
		c0,0.48,0.11,0.86,0.33,1.14c0.21,0.28,0.5,0.42,0.87,0.42c0.32,0,0.63-0.1,0.93-0.31C217.28,95.37,217.59,95.05,217.92,94.63z
		 M207.14,100V86.36h1.1v0.97c0.26-0.38,0.54-0.67,0.83-0.85c0.29-0.19,0.61-0.28,0.94-0.28c0.76,0,1.35,0.45,1.74,1.36
		c0.39,0.91,0.58,2.27,0.58,4.09c0,1.78-0.19,3.09-0.57,3.94c-0.38,0.85-0.96,1.28-1.75,1.28c-0.33,0-0.64-0.08-0.93-0.25
		c-0.29-0.17-0.58-0.43-0.84-0.78V100H207.14z M208.24,94.51c0.23,0.44,0.48,0.78,0.75,1.02c0.27,0.24,0.53,0.36,0.8,0.36
		c0.49,0,0.85-0.33,1.06-0.98c0.22-0.65,0.32-1.73,0.32-3.25c0-1.52-0.11-2.64-0.33-3.33c-0.22-0.7-0.56-1.04-1.03-1.04
		c-0.29,0-0.56,0.12-0.83,0.37c-0.27,0.25-0.51,0.62-0.75,1.11V94.51z M198.66,86.17c0.89,0,1.56,0.45,2,1.34
		c0.44,0.9,0.66,2.26,0.66,4.09c0,1.82-0.22,3.17-0.66,4.07c-0.44,0.89-1.11,1.34-2.01,1.34c-0.92,0-1.6-0.44-2.03-1.32
		c-0.44-0.88-0.66-2.25-0.66-4.08c0-1.84,0.22-3.21,0.66-4.1C197.07,86.61,197.75,86.17,198.66,86.17z M198.66,87.18
		c-0.55,0-0.95,0.33-1.18,1c-0.23,0.67-0.35,1.81-0.35,3.42c0,1.61,0.12,2.74,0.35,3.41c0.23,0.67,0.63,1,1.18,1
		c0.52,0,0.9-0.35,1.14-1.05c0.24-0.7,0.36-1.82,0.36-3.36c0-1.54-0.12-2.67-0.36-3.37C199.56,87.53,199.18,87.18,198.66,87.18z
		 M192.86,94.55v-5.83c-0.25-0.44-0.51-0.78-0.78-1.01c-0.27-0.23-0.53-0.35-0.78-0.35c-0.5,0-0.87,0.31-1.09,0.94
		c-0.22,0.63-0.33,1.69-0.33,3.19c0,1.58,0.11,2.72,0.33,3.42c0.22,0.7,0.58,1.05,1.06,1.05c0.28,0,0.55-0.12,0.82-0.36
		C192.37,95.37,192.62,95.02,192.86,94.55z M193.97,96.76h-0.81l-0.2-0.89c-0.26,0.36-0.54,0.63-0.85,0.83
		c-0.31,0.2-0.62,0.31-0.92,0.31c-0.83,0-1.44-0.46-1.85-1.37c-0.41-0.91-0.61-2.3-0.61-4.15c0-1.72,0.2-3.02,0.62-3.89
		c0.41-0.88,1.02-1.31,1.82-1.31c0.29,0,0.59,0.1,0.89,0.31c0.3,0.21,0.57,0.49,0.81,0.85v-5.12h1.11V96.76z M174.83,96.76V86.4h1.1
		v1.06c0.32-0.4,0.64-0.69,0.96-0.89c0.32-0.2,0.64-0.29,0.95-0.29c0.4,0,0.73,0.12,1,0.36c0.27,0.24,0.44,0.58,0.52,1.01
		c0.32-0.45,0.66-0.79,1.02-1.02c0.36-0.23,0.72-0.35,1.07-0.35c0.57,0,0.98,0.24,1.25,0.72c0.26,0.49,0.39,1.25,0.39,2.29v7.46
		h-1.12v-7.58c0-0.7-0.06-1.18-0.18-1.44c-0.12-0.27-0.33-0.4-0.63-0.4c-0.25,0-0.51,0.11-0.79,0.33c-0.28,0.23-0.57,0.57-0.87,1.01
		v8.08h-1.09v-7.58c0-0.7-0.06-1.18-0.19-1.44c-0.12-0.27-0.33-0.4-0.63-0.4c-0.24,0-0.51,0.11-0.79,0.33
		c-0.28,0.23-0.57,0.57-0.87,1.01v8.08H174.83z M170.92,81.66h1.17l-2.1,3.41h-0.71L170.92,81.66z M173.07,93.58
		c-0.01,1.11-0.25,1.96-0.71,2.55c-0.46,0.59-1.13,0.88-1.99,0.88c-0.92,0-1.6-0.44-2.03-1.32c-0.44-0.88-0.66-2.25-0.66-4.08
		c0-1.84,0.22-3.21,0.66-4.1c0.44-0.89,1.11-1.33,2.03-1.33c0.9,0,1.58,0.44,2.04,1.32c0.46,0.88,0.7,2.17,0.7,3.88v0.32h-4.32v0.16
		c0,1.45,0.14,2.51,0.41,3.17c0.27,0.67,0.7,1,1.3,1c0.48,0,0.85-0.21,1.1-0.63c0.25-0.42,0.38-1.03,0.38-1.83L173.07,93.58z
		 M168.8,90.74l3.2-0.01c-0.03-1.17-0.18-2.06-0.44-2.67c-0.27-0.61-0.63-0.92-1.12-0.92c-0.51,0-0.9,0.29-1.17,0.88
		C169,88.62,168.84,89.52,168.8,90.74z M164.55,96.76V82.33h1.12v14.43H164.55z M161.23,96.76l-0.15-0.96
		c-0.29,0.35-0.61,0.62-0.98,0.81c-0.37,0.19-0.75,0.28-1.15,0.28c-0.63,0-1.13-0.23-1.5-0.7c-0.37-0.46-0.56-1.1-0.56-1.89
		c0-0.93,0.33-1.75,1-2.46c0.66-0.71,1.73-1.39,3.2-2.03v-0.9c0-0.53-0.11-0.95-0.33-1.26c-0.23-0.31-0.53-0.46-0.92-0.46
		c-0.42,0-0.78,0.2-1.07,0.6c-0.29,0.4-0.47,0.92-0.53,1.57h-1.02c0.08-1,0.36-1.78,0.83-2.34c0.47-0.55,1.09-0.83,1.85-0.83
		c0.75,0,1.32,0.29,1.71,0.89c0.39,0.59,0.58,1.46,0.58,2.6v5.09c0,0.45,0.01,0.83,0.03,1.13c0.02,0.31,0.06,0.59,0.1,0.85H161.23z
		 M161.08,94.63v-3.72c-1.04,0.48-1.81,1-2.31,1.55c-0.5,0.55-0.75,1.17-0.75,1.84c0,0.48,0.11,0.86,0.33,1.14
		c0.22,0.28,0.5,0.42,0.87,0.42c0.32,0,0.63-0.1,0.93-0.31C160.44,95.37,160.76,95.05,161.08,94.63z M149.02,86.17
		c0.89,0,1.56,0.45,2,1.34c0.44,0.9,0.66,2.26,0.66,4.09c0,1.82-0.22,3.17-0.66,4.07c-0.44,0.89-1.11,1.34-2.01,1.34
		c-0.92,0-1.6-0.44-2.03-1.32c-0.44-0.88-0.66-2.25-0.66-4.08c0-1.84,0.22-3.21,0.66-4.1C147.44,86.61,148.11,86.17,149.02,86.17z
		 M149.02,87.18c-0.55,0-0.94,0.33-1.18,1c-0.23,0.67-0.35,1.81-0.35,3.42c0,1.61,0.12,2.74,0.35,3.41c0.23,0.67,0.63,1,1.18,1
		c0.52,0,0.9-0.35,1.14-1.05c0.24-0.7,0.36-1.82,0.36-3.36c0-1.54-0.12-2.67-0.36-3.37C149.92,87.53,149.54,87.18,149.02,87.18z
		 M143.69,94.53c0,0.51,0.07,0.87,0.22,1.08c0.14,0.21,0.38,0.31,0.72,0.31c0.16,0,0.31-0.02,0.45-0.05
		c0.14-0.03,0.29-0.08,0.45-0.15v0.98c-0.2,0.06-0.39,0.11-0.58,0.15c-0.19,0.03-0.36,0.05-0.52,0.05c-0.67,0-1.15-0.18-1.44-0.54
		c-0.28-0.36-0.42-0.99-0.42-1.9v-7.12h-1.36V86.4h1.36v-3.33h1.12v3.33h1.84v0.93h-1.84V94.53z M138.76,96.76V86.4h1.12v10.36
		H138.76z M138.66,83.96v-1.34h1.32v1.34H138.66z M136.22,86.4v10.36h-1.09V95.7c-0.32,0.4-0.65,0.7-0.98,0.9
		c-0.34,0.2-0.69,0.3-1.04,0.3c-0.59,0-1.02-0.24-1.29-0.72c-0.27-0.48-0.41-1.25-0.41-2.31V86.4h1.09v7.61
		c0,0.68,0.07,1.17,0.2,1.43c0.13,0.27,0.35,0.41,0.66,0.41c0.28,0,0.57-0.11,0.87-0.34c0.29-0.23,0.59-0.56,0.89-1V86.4H136.22z
		 M121.11,96.76V82.33h2.06l1.61,9.16c0.03,0.16,0.07,0.5,0.14,1.02c0.06,0.52,0.12,1.13,0.2,1.83c0.06-0.61,0.12-1.15,0.18-1.65
		c0.06-0.49,0.11-0.91,0.16-1.25l1.62-9.12h2.08v14.43h-1.22V82.99l-2.38,13.77h-0.92l-2.38-13.77v13.77H121.11z"/>
</g>
</svg>
